<svg xmlns="http://www.w3.org/2000/svg" width="112" height="27" viewBox="0 0 112 27">
  <g fill="#3E3D40">
    <path d="M5,19.1 C5.4,19.6 6,20 6.8,20.2 C7.6,20.4 8.4,20.6 9.3,20.6 C10.2,20.6 11,20.5 11.7,20.2 C12.4,19.9 12.9,19.5 13.3,19.1 C13.7,18.7 13.9,18.1 13.9,17.4 C13.9,16.6 13.6,15.9 12.9,15.4 C12.2,14.9 11.2,14.5 9.7,14.1 L6.8,13.4 C4.8,12.9 3.2,12.2 2.3,11.2 C1.3,10.2 0.8,8.8 0.8,7.2 C0.8,5.9 1.1,4.7 1.8,3.7 C2.5,2.7 3.5,1.9 4.7,1.3 C6,0.7 7.4,0.5 9.1,0.5 C10.7,0.5 12.1,0.8 13.3,1.3 C14.5,1.9 15.5,2.6 16.3,3.6 C17,4.6 17.4,5.7 17.5,7 L13.6,7 C13.5,6 13,5.2 12.2,4.7 C11.4,4.2 10.4,3.8 9.1,3.8 C8.2,3.8 7.5,3.9 6.8,4.2 C6.1,4.5 5.6,4.8 5.3,5.3 C5,5.8 4.8,6.3 4.8,7 C4.8,7.8 5.1,8.4 5.7,8.8 C6.3,9.3 7.3,9.7 8.7,10 L11.3,10.6 C12.8,10.9 14.1,11.4 15,11.9 C16,12.5 16.7,13.1 17.1,13.9 C17.5,14.7 17.8,15.7 17.8,16.8 C17.8,18.2 17.4,19.5 16.7,20.5 C16,21.5 15,22.4 13.6,22.9 C12.3,23.5 10.7,23.8 8.9,23.8 C7.2,23.8 5.7,23.5 4.4,23 C3.1,22.5 2.1,21.7 1.3,20.7 C0.6,19.7 0.2,18.5 0.1,17.2 L4,17.2 C4.3,18 4.5,18.6 5,19.1 Z M34.9,21.5 C34.2,22.3 33.3,22.8 32.3,23.2 C31.3,23.6 30,23.8 28.7,23.8 C27,23.8 25.6,23.4 24.4,22.7 C23.2,22 22.3,21 21.6,19.7 C21,18.4 20.6,16.8 20.6,15 C20.6,13.2 20.9,11.6 21.6,10.3 C22.3,9 23.2,7.9 24.4,7.2 C25.6,6.5 27,6.1 28.7,6.1 C30.3,6.1 31.7,6.4 32.9,7.1 C34.1,7.8 35,8.8 35.6,10 C36.2,11.3 36.5,12.8 36.5,14.6 L36.5,15.8 L24.5,15.8 L24.5,16 C24.5,16.9 24.7,17.7 25.1,18.4 C25.5,19.1 25.9,19.6 26.6,20 C27.2,20.4 28,20.6 28.8,20.6 C29.8,20.6 30.6,20.4 31.2,20.1 C31.9,19.8 32.3,19.3 32.6,18.7 L36.3,18.7 C36,19.8 35.6,20.7 34.9,21.5 Z M26.6,9.8 C26,10.1 25.5,10.6 25.2,11.2 C24.9,11.8 24.6,12.5 24.6,13.4 L32.7,13.4 C32.7,12.6 32.5,11.9 32.2,11.2 C31.9,10.5 31.4,10.1 30.8,9.8 C30.2,9.5 29.5,9.3 28.8,9.3 C27.9,9.2 27.2,9.4 26.6,9.8 Z M43.5,6.5 L43.5,9.2 L43.8,9.2 C44.2,8.2 44.9,7.5 45.7,7 C46.6,6.5 47.6,6.2 48.9,6.2 C50.8,6.2 52.3,6.7 53.3,7.8 C54.3,8.9 54.8,10.4 54.8,12.5 L54.8,23.4 L50.9,23.4 L50.9,13.4 C50.9,12.1 50.6,11.1 50.1,10.5 C49.5,9.9 48.7,9.5 47.5,9.5 C46.7,9.5 46.1,9.7 45.5,10 C44.9,10.3 44.5,10.8 44.2,11.4 C43.9,12 43.7,12.7 43.7,13.6 L43.7,23.4 L39.8,23.4 L39.8,6.5 L43.5,6.5 Z M61.2,22.7 C60.1,22 59.3,21 58.8,19.7 C58.2,18.4 57.9,16.8 57.9,15.1 C57.9,13.3 58.2,11.8 58.8,10.5 C59.4,9.2 60.2,8.2 61.2,7.5 C62.3,6.8 63.5,6.4 64.9,6.4 C66.1,6.4 67.1,6.7 68,7.2 C68.9,7.7 69.6,8.5 70.1,9.4 L70.4,9.4 L70.4,0 L74.3,0 L74.3,23.4 L70.5,23.4 L70.5,20.7 L70.2,20.7 C69.7,21.6 69,22.4 68.1,22.9 C67.2,23.4 66.1,23.7 64.9,23.7 C63.5,23.7 62.2,23.4 61.2,22.7 Z M63.8,10.2 C63.2,10.6 62.7,11.3 62.3,12.1 C62,12.9 61.8,13.9 61.8,15 C61.8,16.1 62,17.1 62.3,17.9 C62.6,18.7 63.1,19.3 63.8,19.8 C64.4,20.2 65.2,20.5 66.1,20.5 C67,20.5 67.8,20.3 68.4,19.8 C69,19.3 69.5,18.7 69.9,17.9 C70.2,17.1 70.4,16.1 70.4,15 C70.4,13.9 70.2,12.9 69.9,12.1 C69.6,11.3 69.1,10.6 68.4,10.2 C67.7,9.8 67,9.5 66.1,9.5 C65.2,9.5 64.5,9.7 63.8,10.2 Z" transform="translate(37 1)"/>
    <path d="M21.7,19.9 L21.5,20.1 C22.2,20.8 22.2,21.8 21.5,22.5 L18.6,25.3 C17.9,26 16.8,26 16.2,25.3 L14,23.2 C13.5,22.7 13.4,22 13.7,21.3 L16.8,24.4 C17.1,24.7 17.7,24.7 18,24.4 L20.5,22 C20.8,21.7 20.8,21.1 20.5,20.8 L17.4,17.7 C18,17.4 18.8,17.5 19.4,18 L21.6,20.1 L21.7,19.9 L21.9,19.7 C22.8,20.6 22.8,22.1 21.9,23 L19,25.7 C18.1,26.6 16.6,26.6 15.7,25.7 L13.5,23.6 C12.7,22.8 12.6,21.5 13.3,20.6 L13.5,20.3 L13.8,20.5 L15.5,22.2 L17.2,23.9 C17.3,24 17.5,24 17.6,23.9 L20.1,21.5 C20.2,21.4 20.2,21.3 20.1,21.2 L16.4,17.6 L16.7,17.4 C17.6,16.7 19,16.8 19.8,17.6 L22,19.7 L21.7,19.9 Z M8.2,15.1 L11.9,18.7 L11.6,19 C10.7,19.7 9.4,19.6 8.6,18.8 L6.4,16.7 C5.5,15.8 5.5,14.3 6.4,13.4 L9.3,10.6 C10.2,9.7 11.7,9.7 12.6,10.6 L14.8,12.7 C15.6,13.5 15.7,14.8 15,15.7 L14.7,16 L14.5,15.8 L11,12.4 C10.9,12.3 10.7,12.3 10.6,12.4 L8.1,14.8 C8.1,14.9 8.1,15 8.2,15.1 Z M17.7,20.1 C18.1,20.5 18.1,21.2 17.7,21.7 C17.3,22.1 16.5,22.1 16.1,21.7 L10.4,16.2 C10,15.8 10,15.1 10.4,14.6 C10.8,14.2 11.6,14.2 12,14.6 L17.7,20.1 Z"/>
    <path d="M14.7,0 C10.5,0 8.2,2.3 6.8,6.4 C3,6.4 0,10.2 0,14 C0,17.4 1.4,19.8 4.7,21.6 C5.3,21.9 6,21.7 6.3,21.1 C6.6,20.5 6.4,19.8 5.8,19.5 C3.4,18.2 2.4,16.6 2.4,14 C2.4,11.4 4.5,8.8 7,8.9 C7.1,8.9 7.1,8.9 7.4,8.9 C7.6,8.9 7.7,8.9 7.7,8.9 C8.3,8.9 8.8,8.6 8.9,8 C9.9,4.2 11.5,2.5 14.7,2.5 C18.4,2.5 20.8,5.4 20.3,9 C20.2,9.8 20.8,10.4 21.6,10.4 C21.5,10.4 21.4,10.4 21.5,10.4 C21.5,10.4 21.5,10.4 21.6,10.4 C21.7,10.4 21.9,10.4 22,10.5 C22.3,10.5 22.6,10.6 22.6,10.6 C24.9,11.1 26.6,13 26.6,14.6 C26.6,16.6 26.4,17.3 24.9,18.7 C24.4,19.2 24.4,19.9 24.9,20.4 C25.4,20.9 26.1,20.9 26.6,20.4 C28.6,18.4 29,17.2 29,14.6 C29,11.8 26.5,8.9 23.1,8.2 C23,8.2 22.9,8.2 22.8,8.2 C22.8,3.6 19.4,0 14.7,0 Z"/>
  </g>
</svg>
